<svg width="110" height="110" viewBox="0 0 110 110" fill="none" xmlns="http://www.w3.org/2000/svg">
<g filter="url(#filter0_d_14556_448)">
<path d="M79 42.5C79 48.8513 73.8513 54 67.5 54C61.1487 54 56 48.8513 56 42.5C56 36.1487 61.1487 31 67.5 31C73.8513 31 79 36.1487 79 42.5Z" fill="url(#paint0_linear_14556_448)"/>
<path d="M79 42.5C79 48.8513 73.8513 54 67.5 54C61.1487 54 56 48.8513 56 42.5C56 36.1487 61.1487 31 67.5 31C73.8513 31 79 36.1487 79 42.5Z" fill="url(#paint1_linear_14556_448)"/>
<path d="M79 42.5C79 48.8513 73.8513 54 67.5 54C61.1487 54 56 48.8513 56 42.5C56 36.1487 61.1487 31 67.5 31C73.8513 31 79 36.1487 79 42.5Z" stroke="#BDBDBD"/>
</g>
<g filter="url(#filter1_d_14556_448)">
<path d="M54 67.5C54 73.8513 48.8513 79 42.5 79C36.1487 79 31 73.8513 31 67.5C31 61.1487 36.1487 56 42.5 56C48.8513 56 54 61.1487 54 67.5Z" fill="url(#paint2_linear_14556_448)"/>
<path d="M54 67.5C54 73.8513 48.8513 79 42.5 79C36.1487 79 31 73.8513 31 67.5C31 61.1487 36.1487 56 42.5 56C48.8513 56 54 61.1487 54 67.5Z" fill="url(#paint3_linear_14556_448)"/>
<path d="M54 67.5C54 73.8513 48.8513 79 42.5 79C36.1487 79 31 73.8513 31 67.5C31 61.1487 36.1487 56 42.5 56C48.8513 56 54 61.1487 54 67.5Z" stroke="#BDBDBD"/>
</g>
<g filter="url(#filter2_d_14556_448)">
<path d="M68 56L56.5 69.5L58 73.564H69.328V78.7812L74.62 76.5V73.564H77L78.004 72V69.064H74.62V58.5L68 56ZM69.328 69.064H62.632L69.328 61.216V69.064Z" fill="black"/>
</g>
<mask id="mask0_14556_448" style="mask-type:alpha" maskUnits="userSpaceOnUse" x="56" y="56" width="23" height="23">
<path d="M79 67.5C79 73.8513 73.8513 79 67.5 79C61.1487 79 56 73.8513 56 67.5C56 61.1487 61.1487 56 67.5 56C73.8513 56 79 61.1487 79 67.5Z" fill="url(#paint4_linear_14556_448)"/>
<path d="M79 67.5C79 73.8513 73.8513 79 67.5 79C61.1487 79 56 73.8513 56 67.5C56 61.1487 61.1487 56 67.5 56C73.8513 56 79 61.1487 79 67.5Z" fill="url(#paint5_linear_14556_448)"/>
<path d="M79 67.5C79 73.8513 73.8513 79 67.5 79C61.1487 79 56 73.8513 56 67.5C56 61.1487 61.1487 56 67.5 56C73.8513 56 79 61.1487 79 67.5Z" stroke="#9E9E9E"/>
</mask>
<g mask="url(#mask0_14556_448)">
<path d="M69.94 53.62L56.116 69.64L57.016 73.564H69.328V79H74.62V73.564H78.004V69.064H74.62V53.62H69.94ZM69.328 69.064H62.632L69.328 61.216V69.064Z" fill="white"/>
</g>
<g filter="url(#filter3_d_14556_448)">
<path d="M49.5789 47.6431C48.4928 49.138 46.9613 50.2507 45.2039 50.8217C43.4465 51.3928 41.5535 51.3928 39.7961 50.8217C38.0387 50.2507 36.5072 49.138 35.4211 47.6431C34.335 46.1482 33.75 44.3478 33.75 42.5C33.75 40.6522 34.335 38.8518 35.4211 37.3569C36.5072 35.862 38.0387 34.7493 39.7961 34.1783C41.5535 33.6072 43.4465 33.6072 45.2039 34.1783C46.9613 34.7493 48.4928 35.862 49.5789 37.3569" stroke="white" stroke-width="5.5"/>
</g>
<defs>
<filter id="filter0_d_14556_448" x="52" y="31" width="31" height="31" filterUnits="userSpaceOnUse" color-interpolation-filters="sRGB">
<feFlood flood-opacity="0" result="BackgroundImageFix"/>
<feColorMatrix in="SourceAlpha" type="matrix" values="0 0 0 0 0 0 0 0 0 0 0 0 0 0 0 0 0 0 127 0" result="hardAlpha"/>
<feOffset dy="4"/>
<feGaussianBlur stdDeviation="2"/>
<feComposite in2="hardAlpha" operator="out"/>
<feColorMatrix type="matrix" values="0 0 0 0 0 0 0 0 0 0 0 0 0 0 0 0 0 0 0.25 0"/>
<feBlend mode="normal" in2="BackgroundImageFix" result="effect1_dropShadow_14556_448"/>
<feBlend mode="normal" in="SourceGraphic" in2="effect1_dropShadow_14556_448" result="shape"/>
</filter>
<filter id="filter1_d_14556_448" x="27" y="56" width="31" height="31" filterUnits="userSpaceOnUse" color-interpolation-filters="sRGB">
<feFlood flood-opacity="0" result="BackgroundImageFix"/>
<feColorMatrix in="SourceAlpha" type="matrix" values="0 0 0 0 0 0 0 0 0 0 0 0 0 0 0 0 0 0 127 0" result="hardAlpha"/>
<feOffset dy="4"/>
<feGaussianBlur stdDeviation="2"/>
<feComposite in2="hardAlpha" operator="out"/>
<feColorMatrix type="matrix" values="0 0 0 0 0 0 0 0 0 0 0 0 0 0 0 0 0 0 0.25 0"/>
<feBlend mode="normal" in2="BackgroundImageFix" result="effect1_dropShadow_14556_448"/>
<feBlend mode="normal" in="SourceGraphic" in2="effect1_dropShadow_14556_448" result="shape"/>
</filter>
<filter id="filter2_d_14556_448" x="52.5" y="56" width="29.504" height="30.7812" filterUnits="userSpaceOnUse" color-interpolation-filters="sRGB">
<feFlood flood-opacity="0" result="BackgroundImageFix"/>
<feColorMatrix in="SourceAlpha" type="matrix" values="0 0 0 0 0 0 0 0 0 0 0 0 0 0 0 0 0 0 127 0" result="hardAlpha"/>
<feOffset dy="4"/>
<feGaussianBlur stdDeviation="2"/>
<feComposite in2="hardAlpha" operator="out"/>
<feColorMatrix type="matrix" values="0 0 0 0 0 0 0 0 0 0 0 0 0 0 0 0 0 0 0.25 0"/>
<feBlend mode="normal" in2="BackgroundImageFix" result="effect1_dropShadow_14556_448"/>
<feBlend mode="normal" in="SourceGraphic" in2="effect1_dropShadow_14556_448" result="shape"/>
</filter>
<filter id="filter3_d_14556_448" x="27" y="31" width="28.8037" height="31" filterUnits="userSpaceOnUse" color-interpolation-filters="sRGB">
<feFlood flood-opacity="0" result="BackgroundImageFix"/>
<feColorMatrix in="SourceAlpha" type="matrix" values="0 0 0 0 0 0 0 0 0 0 0 0 0 0 0 0 0 0 127 0" result="hardAlpha"/>
<feOffset dy="4"/>
<feGaussianBlur stdDeviation="2"/>
<feComposite in2="hardAlpha" operator="out"/>
<feColorMatrix type="matrix" values="0 0 0 0 0 0 0 0 0 0 0 0 0 0 0 0 0 0 0.25 0"/>
<feBlend mode="normal" in2="BackgroundImageFix" result="effect1_dropShadow_14556_448"/>
<feBlend mode="normal" in="SourceGraphic" in2="effect1_dropShadow_14556_448" result="shape"/>
</filter>
<linearGradient id="paint0_linear_14556_448" x1="56" y1="43" x2="79" y2="43" gradientUnits="userSpaceOnUse">
<stop stop-color="#FFC1E3"/>
<stop offset="1" stop-color="#F48FB1"/>
</linearGradient>
<linearGradient id="paint1_linear_14556_448" x1="56" y1="43" x2="79" y2="43" gradientUnits="userSpaceOnUse">
<stop stop-color="#FFC1E3"/>
<stop offset="1" stop-color="#F48FB1"/>
</linearGradient>
<linearGradient id="paint2_linear_14556_448" x1="31" y1="68" x2="54" y2="68" gradientUnits="userSpaceOnUse">
<stop stop-color="#B2FEF7"/>
<stop offset="1" stop-color="#80CBC4"/>
</linearGradient>
<linearGradient id="paint3_linear_14556_448" x1="31" y1="68" x2="54" y2="68" gradientUnits="userSpaceOnUse">
<stop stop-color="#B2FEF7"/>
<stop offset="1" stop-color="#80CBC4"/>
</linearGradient>
<linearGradient id="paint4_linear_14556_448" x1="56" y1="68" x2="79" y2="68" gradientUnits="userSpaceOnUse">
<stop/>
<stop offset="1"/>
</linearGradient>
<linearGradient id="paint5_linear_14556_448" x1="56" y1="68" x2="79" y2="68" gradientUnits="userSpaceOnUse">
<stop/>
<stop offset="1"/>
</linearGradient>
</defs>
</svg>
