<?xml version="1.0" standalone="no"?>
<!DOCTYPE svg PUBLIC "-//W3C//DTD SVG 20010904//EN"
 "http://www.w3.org/TR/2001/REC-SVG-20010904/DTD/svg10.dtd">
<svg version="1.0" xmlns="http://www.w3.org/2000/svg"
 width="512.000000pt" height="512.000000pt" viewBox="0 0 512.000000 512.000000"
 preserveAspectRatio="xMidYMid meet">

<g transform="translate(0.000000,512.000000) scale(0.100000,-0.100000)"
fill="#000000" stroke="none">
<path d="M1880 5113 c-78 -13 -185 -50 -264 -90 -128 -66 -261 -199 -328 -328
-114 -220 -128 -453 -39 -681 32 -82 101 -190 162 -251 35 -36 40 -47 34 -70
-3 -16 -105 -367 -226 -781 -120 -414 -219 -755 -219 -757 0 -3 -33 -5 -72 -5
-91 0 -186 -22 -252 -58 -113 -60 -208 -190 -235 -320 -7 -35 -11 -225 -11
-547 l0 -495 -190 0 c-189 0 -191 0 -215 -25 l-25 -24 0 -319 0 -319 23 -21
23 -22 1607 0 c1594 0 1607 0 1627 20 19 19 20 33 20 344 l0 325 -26 20 c-25
20 -40 21 -215 21 l-189 0 0 503 c0 545 -1 561 -56 669 -15 29 -52 78 -83 109
-99 98 -208 139 -373 139 l-98 0 0 699 0 699 53 22 c82 35 209 124 270 189 30
33 76 94 102 135 l47 76 442 -1 441 0 46 -62 c25 -34 75 -84 112 -112 l67 -50
0 -392 0 -391 -167 -4 c-160 -3 -171 -4 -230 -32 -73 -33 -144 -103 -176 -174
-21 -45 -22 -61 -25 -439 -3 -384 -2 -393 18 -413 19 -19 32 -20 205 -20 184
0 186 0 210 25 l25 24 0 286 0 285 480 0 480 0 0 -288 0 -289 23 -21 c22 -21
32 -22 208 -22 182 0 186 0 208 24 l22 23 -3 384 -3 384 -33 67 c-38 77 -92
130 -171 167 -52 24 -67 26 -223 29 l-168 4 0 393 0 393 34 21 c58 36 169 162
208 237 104 198 100 434 -9 634 -49 88 -168 205 -258 252 -143 75 -327 99
-470 63 -146 -37 -307 -146 -386 -262 l-30 -43 -439 0 -438 0 -32 58 c-117
208 -319 352 -558 398 -69 13 -204 17 -262 7z m246 -148 c200 -38 380 -176
469 -360 46 -94 65 -181 65 -295 0 -184 -62 -333 -195 -465 -132 -132 -281
-195 -464 -195 -268 0 -494 143 -607 385 -139 300 -37 653 244 836 145 95 313
128 488 94z m2183 -150 c196 -52 348 -218 381 -417 34 -200 -47 -392 -215
-510 -260 -183 -623 -90 -761 196 -43 89 -57 161 -52 261 13 220 168 413 379
469 70 19 200 20 268 1z m-775 -362 c-18 -74 -18 -212 0 -285 l13 -58 -384 0
-384 0 8 38 c10 45 11 273 1 325 l-7 37 383 0 383 0 -13 -57z m569 -795 c73
-11 179 -3 255 18 l22 6 0 -361 0 -361 -200 0 -200 0 0 361 0 361 23 -6 c12
-3 57 -11 100 -18z m-2465 -67 c111 -56 185 -73 340 -79 l142 -5 0 -678 0
-679 -488 0 -489 0 214 733 c117 402 213 733 213 735 0 6 14 0 68 -27z m3197
-782 c52 -15 119 -82 134 -134 7 -25 11 -153 11 -347 l0 -308 -90 0 -90 0 0
287 c0 281 0 287 -22 310 l-21 23 -579 0 c-565 0 -578 0 -598 -20 -19 -19 -20
-33 -20 -310 l0 -290 -90 0 -90 0 0 320 c0 354 1 360 67 422 62 59 42 57 723
58 428 0 638 -4 665 -11z m-2294 -832 c66 -32 132 -99 162 -165 22 -46 22 -58
25 -564 l3 -518 -1081 0 -1081 0 3 513 3 512 33 67 c45 92 123 156 217 179 17
4 397 6 845 6 l815 -2 56 -28z m619 -1612 l0 -225 -1510 0 -1510 0 0 225 0
225 1510 0 1510 0 0 -225z"/>
<path d="M1883 4786 c-216 -53 -373 -254 -373 -479 0 -201 147 -398 341 -458
72 -23 200 -25 274 -5 135 36 245 128 310 259 35 70 38 86 43 177 6 123 -13
204 -68 288 -117 180 -326 267 -527 218z m260 -160 c70 -34 129 -91 163 -158
40 -76 45 -199 13 -283 -31 -82 -112 -163 -194 -194 -84 -32 -207 -27 -283 13
-70 35 -123 90 -158 162 -25 51 -29 70 -29 144 0 96 25 165 85 233 97 111 273
147 403 83z"/>
<path d="M4053 4630 c-71 -28 -146 -98 -180 -168 -25 -50 -28 -68 -28 -152 0
-84 3 -101 28 -148 107 -203 365 -253 531 -101 80 73 110 140 111 249 0 77 -3
92 -33 152 -36 73 -87 124 -161 160 -66 32 -197 36 -268 8z m222 -143 c55 -31
94 -90 102 -154 15 -135 -116 -249 -246 -214 -61 16 -104 51 -130 104 -49 102
-9 218 94 271 45 24 132 20 180 -7z"/>
<path d="M827 1808 c-23 -14 -45 -38 -57 -63 -19 -39 -20 -62 -20 -412 0 -359
1 -371 21 -397 l20 -26 860 0 c850 0 859 0 879 20 20 20 21 30 18 413 -3 387
-3 392 -25 423 -48 67 -8 64 -875 64 l-783 0 -38 -22z m1583 -438 l0 -320
-760 0 -760 0 0 320 0 320 760 0 760 0 0 -320z"/>
</g>
</svg>
