<?xml version="1.0" standalone="no"?>
<!DOCTYPE svg PUBLIC "-//W3C//DTD SVG 20010904//EN"
 "http://www.w3.org/TR/2001/REC-SVG-20010904/DTD/svg10.dtd">
<svg version="1.0" xmlns="http://www.w3.org/2000/svg"
 width="444.000000pt" height="444.000000pt" viewBox="0 0 444.000000 444.000000"
 preserveAspectRatio="xMidYMid meet">

<g transform="translate(0.000000,444.000000) scale(0.100000,-0.100000)"
fill="#000000" stroke="none">
<path d="M412 4409 c-26 -13 -55 -39 -70 -62 l-27 -41 -3 -1387 -2 -1387 -24
-6 c-33 -8 -83 -51 -104 -90 -15 -27 -17 -75 -20 -423 l-3 -392 -45 -22 c-28
-13 -56 -37 -72 -62 l-27 -40 -3 -230 c-2 -164 0 -233 9 -243 10 -12 324 -14
2198 -14 1688 0 2190 3 2199 12 9 9 12 74 12 232 0 203 -2 223 -21 263 -21 44
-79 93 -111 93 -16 0 -17 30 -20 399 l-3 399 -30 44 c-18 25 -47 51 -72 63
l-42 20 -3 1380 c-3 1334 -4 1381 -22 1418 -11 22 -37 51 -59 65 l-41 27
-1775 3 -1776 2 -43 -21z m3589 -108 l29 -29 0 -1369 0 -1369 -34 -12 c-44
-16 -92 -70 -105 -119 -6 -21 -11 -91 -11 -155 l0 -118 -358 0 -359 0 -24 26
c-45 50 -70 54 -314 54 -243 0 -256 -2 -304 -54 l-24 -26 -969 0 -968 0 0 125
c0 168 -22 220 -112 266 l-38 19 0 1364 0 1364 26 31 26 31 1755 0 1755 0 29
-29z m-3570 -2890 l29 -29 0 -381 0 -381 -100 0 -100 0 0 365 c0 386 3 419 47
444 10 6 35 11 56 11 29 0 45 -7 68 -29z m3700 19 c47 -26 49 -45 49 -440 l0
-370 -100 0 -101 0 3 386 3 386 28 24 c30 26 83 32 118 14z m-1071 -340 c26
-26 25 -64 -2 -90 -20 -19 -34 -20 -230 -20 -208 0 -209 0 -233 25 -30 29 -31
45 -4 79 l20 26 215 0 c201 0 215 -1 234 -20z m-574 -95 c11 -34 10 -35 -10
-28 -12 5 -130 8 -263 8 -229 0 -243 -1 -270 -21 -65 -49 -90 -127 -63 -199 9
-24 8 -26 -7 -19 -10 5 -129 9 -265 9 -233 0 -248 -1 -274 -21 -71 -53 -92
-131 -55 -207 l22 -45 -22 -42 c-17 -33 -20 -51 -16 -91 l6 -49 -277 2 -277 3
-5 100 c-4 81 -9 107 -28 137 -24 38 -77 78 -106 78 -14 0 -16 22 -16 210 l0
210 958 0 957 0 11 -35z m1394 -169 l0 -204 -46 -22 c-28 -14 -56 -38 -72 -63
-24 -35 -28 -53 -32 -141 l-5 -101 -277 -3 -277 -2 6 49 c4 39 1 59 -16 94
l-22 45 21 34 c26 42 26 100 0 154 l-21 42 21 34 c25 42 26 102 0 153 l-20 38
23 49 22 48 347 0 348 0 0 -204z m-1428 37 c24 -21 23 -68 -2 -93 -19 -19 -33
-20 -230 -20 -197 0 -211 1 -230 20 -24 24 -26 67 -3 92 15 16 36 18 231 18
186 0 218 -2 234 -17z m608 -3 c26 -26 25 -64 -2 -90 -20 -19 -34 -20 -230
-20 -208 0 -209 0 -233 25 -30 29 -31 45 -4 79 l20 26 215 0 c201 0 215 -1
234 -20z m-1224 -218 c39 -25 36 -90 -5 -111 -12 -7 -98 -11 -219 -11 -186 0
-201 1 -226 21 -29 23 -33 54 -10 87 15 22 19 22 232 22 119 0 222 -4 228 -8z
m616 -9 c22 -19 23 -62 4 -89 -14 -18 -28 -19 -236 -19 -208 0 -222 1 -236 19
-19 26 -18 65 3 88 15 16 36 18 231 18 186 0 218 -2 234 -17z m612 -5 c23 -33
19 -64 -10 -87 -25 -20 -40 -21 -226 -21 -121 0 -207 4 -219 11 -41 21 -44 86
-5 111 6 4 109 8 228 8 213 0 217 0 232 -22z m-2501 -120 c44 -23 46 -35 47
-220 l0 -178 -250 0 -250 0 0 179 0 179 31 26 c30 26 31 26 215 26 122 0 193
-4 207 -12z m3736 -14 l31 -26 0 -179 0 -179 -250 0 -250 0 0 178 c1 123 4
182 13 193 27 34 51 38 239 39 186 0 187 0 217 -26z m-2463 -82 c39 -25 36
-90 -5 -111 -12 -7 -98 -11 -219 -11 -186 0 -201 1 -226 21 -30 24 -34 63 -9
91 15 16 35 18 232 18 119 0 221 -4 227 -8z m616 -9 c22 -19 23 -62 4 -89 -14
-18 -28 -19 -236 -19 -208 0 -222 1 -236 19 -19 26 -18 65 3 88 15 16 36 18
231 18 186 0 218 -2 234 -17z m610 0 c27 -24 23 -68 -8 -92 -25 -20 -40 -21
-226 -21 -121 0 -207 4 -219 11 -41 21 -44 86 -5 111 6 4 107 8 225 8 186 0
217 -2 233 -17z m668 -253 l0 -40 -1510 0 -1510 0 0 40 0 40 1510 0 1510 0 0
-40z"/>
<path d="M673 4149 c-17 -5 -43 -23 -57 -40 l-26 -31 0 -1339 c0 -1472 -4
-1381 60 -1414 26 -13 212 -15 1570 -15 1358 0 1544 2 1570 15 64 33 60 -58
60 1414 l0 1339 -26 31 c-14 17 -42 35 -62 41 -48 13 -3043 12 -3089 -1z
m3075 -1416 l2 -1323 -1530 0 -1530 0 0 1318 c0 725 3 1322 7 1325 3 4 691 6
1527 5 l1521 -3 3 -1322z"/>
<path d="M975 3862 c-47 -22 -92 -72 -101 -110 -3 -15 -7 -32 -9 -38 -7 -23
17 -100 41 -131 84 -111 259 -81 310 52 19 51 14 110 -14 157 -43 73 -150 106
-227 70z m126 -111 c34 -34 37 -68 9 -104 -54 -68 -153 -21 -141 68 3 28 47
65 77 65 15 0 38 -12 55 -29z"/>
<path d="M1445 3861 c-160 -72 -139 -303 31 -341 140 -32 264 113 206 241 -45
102 -143 143 -237 100z m127 -111 c25 -26 29 -36 24 -63 -9 -45 -39 -71 -81
-71 -76 0 -109 91 -51 140 37 33 71 30 108 -6z"/>
<path d="M1915 3861 c-104 -47 -143 -172 -81 -263 75 -111 227 -111 302 0 79
116 -14 283 -157 282 -13 0 -42 -9 -64 -19z m127 -111 c25 -26 29 -36 24 -63
-9 -45 -39 -71 -81 -71 -76 0 -109 91 -51 140 37 33 71 30 108 -6z"/>
<path d="M2395 3868 c-74 -26 -132 -118 -120 -193 25 -169 236 -217 331 -77
95 139 -52 326 -211 270z m108 -108 c50 -39 39 -114 -21 -139 -50 -21 -96 8
-108 67 -5 26 -1 36 24 62 35 35 69 38 105 10z"/>
<path d="M2865 3868 c-74 -26 -132 -118 -120 -193 30 -202 311 -214 356 -16
30 134 -106 254 -236 209z m108 -108 c50 -39 39 -114 -21 -139 -50 -21 -96 8
-108 67 -5 26 -1 36 24 62 35 35 69 38 105 10z"/>
<path d="M3333 3869 c-66 -19 -123 -102 -123 -179 1 -39 34 -103 69 -133 78
-65 195 -54 254 25 31 41 40 70 39 125 -3 118 -119 197 -239 162z m111 -111
c43 -39 36 -107 -14 -133 -37 -19 -74 -11 -100 22 -28 36 -25 70 9 104 35 35
71 37 105 7z"/>
<path d="M987 3385 c-45 -15 -83 -48 -104 -88 -19 -37 -19 -127 1 -165 34 -65
123 -110 191 -98 69 13 138 83 151 153 15 79 -50 179 -131 202 -50 14 -61 13
-108 -4z m121 -121 c30 -34 28 -70 -7 -105 -35 -35 -71 -37 -105 -6 -42 37
-36 105 12 132 34 19 71 11 100 -21z"/>
<path d="M1455 3385 c-109 -39 -155 -173 -91 -268 68 -101 206 -112 285 -21
89 101 43 258 -87 294 -47 13 -58 12 -107 -5z m117 -113 c10 -9 20 -31 24 -49
5 -27 1 -37 -24 -63 -34 -33 -66 -38 -100 -14 -33 23 -46 61 -31 96 23 55 90
70 131 30z"/>
<path d="M1927 3385 c-129 -45 -164 -200 -68 -296 84 -84 210 -71 277 28 66
98 12 240 -101 272 -50 14 -61 13 -108 -4z m115 -113 c10 -9 20 -31 24 -49 5
-27 1 -37 -24 -63 -35 -35 -69 -38 -105 -10 -31 25 -41 63 -25 98 25 51 90 63
130 24z"/>
<path d="M2397 3385 c-124 -44 -162 -191 -76 -289 124 -142 358 -17 308 166
-14 53 -72 112 -124 127 -50 14 -61 13 -108 -4z m118 -115 c30 -30 26 -87 -9
-116 -37 -33 -71 -30 -108 6 -25 26 -29 36 -24 62 15 74 88 99 141 48z"/>
<path d="M2867 3385 c-22 -7 -50 -24 -64 -37 -32 -29 -63 -94 -63 -133 0 -38
31 -104 61 -132 133 -122 345 5 298 179 -14 53 -72 112 -124 127 -50 14 -61
13 -108 -4z m118 -115 c30 -30 26 -87 -9 -116 -37 -33 -71 -30 -108 6 -25 26
-29 36 -24 62 15 74 88 99 141 48z"/>
<path d="M3335 3385 c-51 -18 -100 -71 -116 -125 -25 -82 20 -171 106 -211 46
-21 66 -23 117 -9 80 23 129 89 129 175 0 86 -49 152 -129 175 -47 13 -58 12
-107 -5z m95 -100 c30 -15 46 -52 41 -90 -3 -28 -47 -65 -77 -65 -32 0 -84 51
-84 82 0 30 26 67 54 78 30 12 33 12 66 -5z"/>
<path d="M962 2893 c-85 -41 -121 -162 -74 -248 16 -30 64 -72 95 -84 104 -40
225 33 243 145 11 73 -31 156 -97 189 -37 20 -126 19 -167 -2z m143 -108 c68
-67 -25 -174 -103 -119 -45 32 -48 99 -5 132 28 21 81 15 108 -13z"/>
<path d="M1435 2894 c-59 -30 -86 -67 -99 -133 -13 -72 40 -168 111 -197 134
-57 282 73 244 213 -14 52 -55 101 -98 119 -43 19 -121 18 -158 -2z m134 -101
c11 -10 24 -32 27 -49 8 -41 -35 -94 -76 -94 -34 0 -76 32 -84 65 -7 27 15 80
36 88 28 12 77 6 97 -10z"/>
<path d="M1902 2893 c-160 -78 -111 -324 68 -341 160 -15 257 175 153 299 -15
17 -42 38 -60 45 -43 19 -121 17 -161 -3z m138 -103 c31 -31 36 -68 13 -98
-42 -57 -111 -51 -141 12 -16 31 -2 79 27 96 28 16 80 11 101 -10z"/>
<path d="M2375 2896 c-42 -18 -82 -68 -96 -119 -22 -80 20 -170 96 -207 77
-37 155 -21 212 43 74 84 63 197 -23 264 -29 21 -49 28 -98 30 -37 2 -73 -2
-91 -11z m120 -92 c24 -10 46 -60 39 -89 -8 -33 -50 -65 -84 -65 -41 0 -84 53
-76 94 10 53 66 81 121 60z"/>
<path d="M2845 2896 c-73 -32 -117 -126 -96 -205 16 -61 44 -96 94 -120 79
-38 157 -23 214 42 73 83 63 198 -23 264 -29 21 -49 28 -98 30 -37 2 -73 -2
-91 -11z m120 -92 c24 -10 46 -60 39 -89 -8 -33 -50 -65 -84 -65 -41 0 -84 53
-76 94 10 53 66 81 121 60z"/>
<path d="M3304 2892 c-125 -79 -120 -259 8 -321 123 -59 260 25 260 159 0 60
-25 114 -70 148 -47 36 -151 43 -198 14z m136 -92 c25 -13 41 -65 30 -94 -18
-48 -84 -71 -121 -43 -21 16 -39 51 -39 77 0 51 79 87 130 60z"/>
<path d="M952 2404 c-117 -70 -111 -254 11 -313 115 -56 244 10 263 134 22
150 -143 258 -274 179z m137 -84 c10 -5 24 -23 31 -40 34 -82 -69 -150 -130
-85 -63 67 18 169 99 125z"/>
<path d="M1428 2410 c-125 -66 -122 -257 4 -319 87 -42 184 -17 235 61 58 86
25 211 -67 258 -50 26 -123 25 -172 0z m140 -100 c30 -28 36 -62 18 -98 -17
-33 -34 -42 -74 -42 -48 1 -89 51 -76 93 19 63 88 87 132 47z"/>
<path d="M1898 2410 c-126 -67 -123 -257 5 -319 86 -42 183 -17 234 61 58 86
25 211 -67 258 -50 26 -123 25 -172 0z m140 -100 c30 -28 36 -62 18 -98 -31
-60 -111 -58 -144 5 -18 32 -15 48 14 82 31 37 79 42 112 11z"/>
<path d="M2367 2409 c-90 -47 -121 -172 -64 -257 51 -78 148 -103 234 -61 100
48 129 177 61 272 -45 64 -155 86 -231 46z m147 -110 c29 -34 32 -50 14 -82
-16 -31 -39 -46 -70 -47 -40 0 -57 9 -74 42 -45 86 68 161 130 87z"/>
<path d="M2837 2409 c-90 -47 -121 -172 -64 -257 51 -78 148 -103 234 -61 100
48 129 177 61 272 -45 64 -155 86 -231 46z m140 -101 c29 -32 36 -63 22 -90
-17 -33 -40 -47 -72 -48 -40 0 -62 14 -77 50 -14 34 0 83 29 100 29 17 76 11
98 -12z"/>
<path d="M3315 2413 c-48 -25 -73 -53 -91 -99 -44 -115 43 -243 165 -244 142
0 228 147 160 271 -43 77 -158 113 -234 72z m135 -108 c67 -71 -27 -176 -107
-120 -30 21 -38 66 -19 103 18 34 28 40 72 41 20 1 38 -7 54 -24z"/>
<path d="M980 1939 c-64 -26 -112 -98 -112 -169 0 -123 99 -200 227 -176 79
15 144 113 131 198 -18 114 -142 188 -246 147z m111 -102 c21 -16 39 -51 39
-77 0 -51 -79 -87 -130 -60 -25 13 -41 65 -30 94 18 48 84 71 121 43z"/>
<path d="M1445 1936 c-127 -59 -147 -230 -37 -314 31 -24 45 -27 107 -27 63 0
76 3 108 28 49 37 70 81 71 142 1 102 -66 175 -167 182 -31 2 -64 -2 -82 -11z
m127 -116 c25 -26 29 -36 24 -63 -15 -77 -116 -94 -152 -26 -18 36 -10 73 23
99 36 28 70 25 105 -10z"/>
<path d="M1902 1929 c-93 -47 -126 -176 -66 -261 42 -60 85 -80 160 -76 70 4
122 35 151 91 23 44 22 123 -1 170 -41 84 -157 120 -244 76z m139 -108 c33
-33 35 -50 14 -90 -15 -31 -33 -41 -70 -41 -37 0 -55 10 -71 41 -18 36 -10 73
23 99 36 28 70 25 104 -9z"/>
<path d="M2372 1929 c-132 -67 -131 -260 2 -323 118 -56 258 28 259 156 2 139
-138 230 -261 167z m131 -99 c33 -26 41 -63 23 -99 -36 -68 -137 -51 -152 26
-5 27 -1 37 24 63 35 35 69 38 105 10z"/>
<path d="M2842 1929 c-112 -57 -133 -204 -41 -291 86 -82 234 -57 284 49 75
156 -89 320 -243 242z m131 -99 c33 -26 41 -63 23 -99 -36 -68 -137 -51 -152
26 -5 27 -1 37 24 63 35 35 69 38 105 10z"/>
<path d="M3312 1929 c-105 -52 -132 -189 -54 -281 69 -81 219 -76 281 10 26
38 41 103 32 145 -28 121 -149 180 -259 126z m126 -95 c32 -22 43 -57 31 -94
-20 -55 -91 -69 -134 -25 -68 67 25 174 103 119z"/>
</g>
</svg>
