<?xml version="1.0" standalone="no"?>
<!DOCTYPE svg PUBLIC "-//W3C//DTD SVG 20010904//EN"
 "http://www.w3.org/TR/2001/REC-SVG-20010904/DTD/svg10.dtd">
<svg version="1.0" xmlns="http://www.w3.org/2000/svg"
 width="96.000000pt" height="96.000000pt" viewBox="0 0 96.000000 96.000000"
 preserveAspectRatio="xMidYMid meet">

<g transform="translate(0.000000,96.000000) scale(0.100000,-0.100000)"
fill="#000000" stroke="none">
<path d="M361 944 c-253 -68 -410 -331 -346 -579 67 -256 329 -415 580 -350
256 67 415 329 350 578 -67 259 -333 419 -584 351z m207 -74 c111 -26 225
-116 271 -215 74 -157 43 -334 -79 -455 -158 -159 -402 -159 -560 0 -159 158
-159 402 0 560 100 101 234 140 368 110z"/>
<path d="M265 615 c-50 -49 -15 -135 55 -135 41 0 80 39 80 80 0 19 -9 40 -25
55 -15 16 -36 25 -55 25 -19 0 -40 -9 -55 -25z"/>
<path d="M585 615 c-16 -15 -25 -36 -25 -55 0 -19 9 -40 25 -55 49 -50 135
-15 135 55 0 41 -39 80 -80 80 -19 0 -40 -9 -55 -25z"/>
<path d="M278 342 c-16 -9 -28 -20 -28 -23 0 -4 21 -26 46 -48 106 -93 262
-93 368 0 25 22 46 44 46 48 0 4 -14 15 -31 25 -30 18 -31 18 -57 -7 -78 -74
-219 -73 -286 2 -23 25 -23 25 -58 3z"/>
</g>
</svg>
