<?xml version="1.0" standalone="no"?>
<!DOCTYPE svg PUBLIC "-//W3C//DTD SVG 20010904//EN"
 "http://www.w3.org/TR/2001/REC-SVG-20010904/DTD/svg10.dtd">
<svg version="1.0" xmlns="http://www.w3.org/2000/svg"
 width="512.000000pt" height="512.000000pt" viewBox="0 0 512.000000 512.000000"
 preserveAspectRatio="xMidYMid meet">

<g transform="translate(0.000000,512.000000) scale(0.100000,-0.100000)"
fill="#000000" stroke="none">
<path d="M1613 5106 c-105 -33 -187 -109 -224 -206 -18 -49 -19 -90 -19 -1283
l0 -1233 -52 -34 c-64 -43 -104 -104 -119 -184 -7 -40 -9 -199 -7 -475 5 -457
6 -465 70 -598 47 -96 159 -208 258 -256 116 -57 171 -67 362 -67 l168 0 0
-84 0 -83 -86 -6 c-196 -12 -327 -139 -341 -331 -8 -106 2 -160 40 -203 58
-66 16 -63 897 -63 881 0 839 -3 897 63 38 43 48 97 40 203 -14 192 -145 319
-341 331 l-86 6 0 83 0 84 168 0 c191 0 245 10 362 67 100 49 203 150 254 251
68 135 69 142 74 603 2 276 0 435 -7 475 -15 80 -55 141 -119 184 l-52 34 0
1233 c0 1218 0 1233 -20 1287 -28 73 -99 147 -175 183 l-60 28 -920 2 c-741 1
-928 -1 -962 -11z m352 -290 c94 -100 142 -143 188 -168 l62 -33 345 0 c426 0
385 -13 585 192 l140 143 80 0 c95 -1 151 -22 186 -71 l24 -34 3 -1226 2
-1227 -37 -7 c-55 -10 -129 -53 -158 -91 -50 -65 -55 -98 -55 -350 l0 -234
-770 0 -770 0 0 234 c0 252 -5 285 -55 350 -29 38 -103 81 -158 91 l-37 7 2
1227 3 1226 24 34 c36 50 90 71 188 71 l81 0 127 -134z m1023 72 c-97 -111
-86 -108 -428 -108 -342 0 -331 -3 -428 108 l-55 62 483 0 483 0 -55 -62z
m-1397 -2697 l29 -29 0 -369 c0 -407 4 -437 60 -505 17 -20 56 -49 88 -65 l57
-28 735 0 735 0 57 28 c32 16 71 45 88 65 57 68 60 98 60 508 l0 372 32 27
c30 25 37 27 106 23 122 -6 113 32 110 -507 l-3 -456 -31 -66 c-55 -116 -142
-192 -262 -229 -62 -19 -96 -20 -892 -20 -785 0 -831 1 -889 19 -122 38 -210
115 -265 230 l-31 66 -3 452 c-2 316 1 459 8 474 16 28 45 38 118 38 57 1 66
-2 93 -28z m1737 -695 c4 -51 -4 -82 -28 -106 -20 -20 -36 -20 -734 -20 -393
0 -722 3 -731 6 -8 4 -22 19 -30 35 -15 28 -21 110 -8 122 3 4 349 6 767 5
l761 -3 3 -39z m-428 -811 l0 -85 -340 0 -340 0 0 85 0 85 340 0 340 0 0 -85z
m313 -269 c77 -28 116 -92 117 -188 l0 -58 -770 0 -770 0 0 58 c1 96 40 160
117 188 56 20 1250 20 1306 0z"/>
<path d="M1929 4426 c-15 -8 -70 -58 -123 -112 -79 -82 -96 -104 -96 -130 0
-49 34 -84 81 -84 37 0 48 7 139 96 54 52 104 108 110 125 17 41 -3 87 -46
105 -40 17 -33 17 -65 0z"/>
<path d="M2450 4433 c-8 -3 -178 -168 -377 -367 -342 -340 -363 -363 -363
-397 0 -60 58 -99 113 -75 18 8 188 171 380 363 298 299 348 354 353 384 5 28
1 41 -17 62 -25 27 -63 40 -89 30z"/>
</g>
</svg>
